<svg width="629" height="109" viewBox="0 0 629 109" xmlns="http://www.w3.org/2000/svg"><path opacity="0.5" d="M628.5 54.5C628.5 58.0523 626.424 61.599 622.287 65.1021C618.155 68.6016 612.03 72.0002 604.095 75.2512C588.23 81.7513 565.242 87.6158 536.8 92.5447C479.922 102.401 401.327 108.5 314.5 108.5C227.673 108.5 149.078 102.401 92.2003 92.5447C63.7575 87.6158 40.7699 81.7513 24.9045 75.2512C16.9696 72.0002 10.8451 68.6016 6.71265 65.1021C2.57607 61.599 0.5 58.0523 0.5 54.5C0.5 50.9477 2.57607 47.401 6.71265 43.8979C10.8451 40.3984 16.9696 36.9998 24.9045 33.7488C40.7699 27.2487 63.7575 21.3842 92.2003 16.4553C149.078 6.599 227.673 0.5 314.5 0.5C401.327 0.5 479.922 6.599 536.8 16.4553C565.242 21.3842 588.23 27.2487 604.095 33.7488C612.03 36.9998 618.155 40.3984 622.287 43.8979C626.424 47.401 628.5 50.9477 628.5 54.5Z" fill="#DCDBE0" stroke="white"/></svg>