<svg version="1.1" id="Layer_1" xmlns="http://www.w3.org/2000/svg" x="0px" y="0px" width="85" height="85" viewBox="0 0 3000 3000" enable-background="new 0 0 3000 3000"><g><path fill="#FF212A" d="M1226.6,2105.9c0,0-7.8,12.8-22.2,30.3c-35.1,42.6-109.3,113.1-205.7,95.7l-1.1-9.4l-50.8-416.8l-2.1-17.1 l89.2,53.7l16.6,22.7L1226.6,2105.9z"/><path fill="#B2B4B8" d="M987.2,1745l7.4,29.1l215.3,851.4c14,55.4-17.5,112.1-71.9,129.4l-23.6,7.5l-29,9.2l-81,25.9 c-31.3,10-63.7,5-89.5-10.9c-22.6-13.9-40.3-36.2-47.7-64l-218.9-815L987.2,1745z"/><path fill="#C3C6C9" d="M994.5,1774.1l215.3,851.4c14,55.4-17.5,112.1-71.9,129.4l-23.6,7.5l-29,9.2l-81,25.9 c-31.3,10-63.7,5-89.5-10.9c221-283.6,54.6-953.4,54.6-953.4L994.5,1774.1z"/><path fill="#FF3840" d="M1226.6,2105.9c0,0-7.8,12.8-22.2,30.3l-172-255.3l18.1-15.8L1226.6,2105.9z"/><polygon fill="#E6E7E8" points="2007.4,174.2 2663,1540.8 860.7,1944.3 564.7,1327.4 	"/><path fill="#ED1C24" d="M564.7,1327.4l295.9,616.9l-298.3,143.1c-45.9,22-101,2.7-123-43.2l-216.2-450.7c-22-45.9-2.7-101,43.2-123 L564.7,1327.4z"/><rect x="437.9" y="1356.3" transform="matrix(0.9016 -0.4325 0.4325 0.9016 -677.3217 419.0101)" fill="#FF1E26" width="289" height="684.2"/><path fill="#979899" d="M2480.1,788c164.1,342.1,246.8,651,201.2,734.4c-4.7,8.6-10.8,14.8-18.3,18.4 c-68.9,33.1-235.5-166.2-396-463.3c-25.9-47.8-51.6-98.2-76.7-150.6c-25.1-52.3-48.3-103.9-69.4-154 c-106-251.4-159.8-465.8-140.2-556.4c4.7-21.5,13.5-36,26.7-42.4C2087.4,135.8,2299,410.6,2480.1,788z"/><path fill="#BBBCBD" d="M2471.7,812c151.1,315,233.2,601.9,209.6,710.5c-4.7,8.6-10.8,14.8-18.3,18.4 c-68.9,33.1-235.5-166.2-396-463.3c-25.9-47.8-51.6-98.2-76.7-150.6c-25.1-52.3-48.3-103.9-69.4-154 c-106-251.4-159.8-465.8-140.2-556.4c4.7-8.6,10.8-14.8,18.3-18.4C2079,159.8,2290.6,434.6,2471.7,812z"/><path fill="#BBBCBD" d="M2007.4,174.2l-12.8,10.2C1998.3,179.9,2002.6,176.5,2007.4,174.2z"/><path fill="#D6383E" d="M2327.9,699.2l126.2,263.1L2267,1077.6c-25.9-47.8-51.6-98.2-76.7-150.6c-25.1-52.3-48.3-103.9-69.4-154 L2327.9,699.2z"/><ellipse transform="matrix(0.9016 -0.4325 0.4325 0.9016 -124.093 1115.9316)" fill="#BA3136" cx="2391" cy="830.7" rx="30.9" ry="145.9"/><path opacity="0.25" fill="#FFFFFF" d="M1994.6,184.4c-31.1,37.8-20.6,150.3,23.2,302.4L639.6,1483.6l-381.4,183l-35-73 c-22-45.9-2.7-101,43.2-123l298.3-143.1L1994.6,184.4z"/><path opacity="0.1" fill="#231F20" d="M2647.1,1544.4c-49,0.6-130.1-78-221.3-207.3l-1640,451.1l-381.4,183l35,73 c22,45.9,77.1,65.3,123,43.2l298.3-143.1L2647.1,1544.4z"/></g></svg>