<svg width="34" height="28" viewBox="0 0 34 28" fill="none" xmlns="http://www.w3.org/2000/svg"><path d="M33 4.07984C31.81 4.60182 30.542 4.9478 29.22 5.1158C30.58 4.30383 31.618 3.02788 32.106 1.48993C30.838 2.24591 29.438 2.77989 27.946 3.07788C26.742 1.79592 25.026 1.00195 23.154 1.00195C19.522 1.00195 16.598 3.94984 16.598 7.56371C16.598 8.08369 16.642 8.58367 16.75 9.05965C11.296 8.79366 6.47 6.17976 3.228 2.19791C2.662 3.17987 2.33 4.30383 2.33 5.51378C2.33 7.7857 3.5 9.79962 5.244 10.9656C4.19 10.9456 3.156 10.6396 2.28 10.1576C2.28 10.1776 2.28 10.2036 2.28 10.2296C2.28 13.4175 4.554 16.0654 7.536 16.6754C7.002 16.8214 6.42 16.8914 5.816 16.8914C5.396 16.8914 4.972 16.8674 4.574 16.7794C5.424 19.3773 7.836 21.2872 10.704 21.3492C8.472 23.0951 5.638 24.1471 2.57 24.1471C2.032 24.1471 1.516 24.1231 1 24.0571C3.906 25.931 7.35 27.001 11.064 27.001C23.136 27.001 29.736 17.0014 29.736 8.33368C29.736 8.04369 29.726 7.7637 29.712 7.48571C31.014 6.56174 32.108 5.40779 33 4.07984Z" stroke="#cacaca" stroke-width="2" stroke-linejoin="round"/></svg>